<?xml version="1.0" encoding="utf-8"?>
<!-- Generator: Adobe Illustrator 21.1.0, SVG Export Plug-In . SVG Version: 6.00 Build 0)  -->
<svg version="1.1" id="Layer_1" xmlns="http://www.w3.org/2000/svg" xmlns:xlink="http://www.w3.org/1999/xlink" x="0px" y="0px"
	 viewBox="0 0 85 28" style="enable-background:new 0 0 85 28;" xml:space="preserve">
<style type="text/css">
	.st0{fill:#FFFFFF;}
	.st1{fill:#006837;}
</style>
<g>
	<path class="st0" d="M19.5,4.7C17,2,14.2,1,9.2,1H0.5v25.8h10.2c7.4,0,12.1-5.1,12.1-13.1C22.8,10.1,21.6,7,19.5,4.7 M9.9,21H7V6.8
		h2.9c4,0,6.3,2.6,6.3,7.2C16.2,18.5,14,21,9.9,21"/>
	<polygon class="st0" points="41.7,17.2 31.7,1 26.1,1 26.1,26.8 32.4,26.8 32.1,11.1 42.1,26.8 47.8,26.8 47.8,1 41.5,1 	"/>
	<polygon class="st0" points="59.6,19.3 62.8,9 62.9,9.2 62.9,1 60.2,1 49.9,26.8 56.9,26.8 57.8,24.5 62.8,24.5 62.8,19.3 	"/>
</g>
<g>
	<polygon class="st1" points="65.6,17.2 63.1,9.1 63.1,9.3 63.1,1 65.8,1 76.3,27.2 69.1,27.2 67.5,22.5 63.1,22.5 63.1,17.2 	"/>
	<rect x="78.3" y="1" class="st1" width="6.7" height="26.2"/>
</g>
</svg>
